<svg width="64" height="64" viewBox="0 0 64 64" fill="none" xmlns="http://www.w3.org/2000/svg">
<rect width="64" height="64" rx="20" fill="#F3F7F4"/>
<path d="M15.45 41.3C13.6667 41.3 12.05 40.9167 10.6 40.15C9.16667 39.3667 8.03333 38.2917 7.2 36.925C6.38333 35.5417 5.975 33.9833 5.975 32.25C5.975 30.5167 6.38333 28.9667 7.2 27.6C8.03333 26.2167 9.16667 25.1417 10.6 24.375C12.05 23.5917 13.675 23.2 15.475 23.2C16.9917 23.2 18.3583 23.4667 19.575 24C20.8083 24.5333 21.8417 25.3 22.675 26.3L20.075 28.7C18.8917 27.3333 17.425 26.65 15.675 26.65C14.5917 26.65 13.625 26.8917 12.775 27.375C11.925 27.8417 11.2583 28.5 10.775 29.35C10.3083 30.2 10.075 31.1667 10.075 32.25C10.075 33.3333 10.3083 34.3 10.775 35.15C11.2583 36 11.925 36.6667 12.775 37.15C13.625 37.6167 14.5917 37.85 15.675 37.85C17.425 37.85 18.8917 37.1583 20.075 35.775L22.675 38.175C21.8417 39.1917 20.8083 39.9667 19.575 40.5C18.3417 41.0333 16.9667 41.3 15.45 41.3ZM43.835 41L43.81 30.5L38.66 39.15H36.835L31.71 30.725V41H27.91V23.5H31.26L37.81 34.375L44.26 23.5H47.585L47.635 41H43.835ZM55.4869 41.2C54.8036 41.2 54.2286 40.9667 53.7619 40.5C53.2952 40.0333 53.0619 39.45 53.0619 38.75C53.0619 38.0333 53.2952 37.4583 53.7619 37.025C54.2286 36.575 54.8036 36.35 55.4869 36.35C56.1702 36.35 56.7452 36.575 57.2119 37.025C57.6786 37.4583 57.9119 38.0333 57.9119 38.75C57.9119 39.45 57.6786 40.0333 57.2119 40.5C56.7452 40.9667 56.1702 41.2 55.4869 41.2Z" fill="#374857"/>
</svg>
